<?xml version='1.0' encoding='iso-8859-1'?>
<!-- Uploaded to: SVG Repo, www.svgrepo.com, Generator: SVG Repo Mixer Tools -->
<svg fill="#000000" height="800px" width="800px" version="1.1" xmlns="http://www.w3.org/2000/svg" viewBox="0 0 470.001 470.001" xmlns:xlink="http://www.w3.org/1999/xlink" enable-background="new 0 0 470.001 470.001">
  <g>
    <path d="m175,50.021h120c4.142,0 7.5-3.357 7.5-7.5s-3.358-7.5-7.5-7.5h-120c-4.142,0-7.5,3.357-7.5,7.5s3.358,7.5 7.5,7.5z"/>
    <path d="m406.985,402.312l-9.494-375.008c-0.38-15.056-12.943-27.304-28.003-27.304h-268.975c-15.06,0-27.623,12.248-28.004,27.304l-9.494,375.008c-0.001,0.063-0.002,0.126-0.002,0.189v9.999c0,15.163 12.336,27.5 27.5,27.5h31.893l-17.197,17.196c-2.929,2.93-2.929,7.678 0,10.607 1.464,1.464 3.384,2.196 5.303,2.196 1.919,0 3.839-0.732 5.303-2.196l57.804-57.803h37.334l-10.206,51.028c-0.812,4.062 1.822,8.013 5.884,8.825 0.497,0.1 0.991,0.146 1.479,0.146 3.502,0 6.633-2.465 7.347-6.03l10.794-53.97h17.498l10.794,53.97c0.713,3.565 3.845,6.03 7.347,6.03 0.487,0 0.982-0.047 1.479-0.146 4.062-0.813 6.696-4.764 5.884-8.825l-10.205-51.028h37.334l57.803,57.803c1.464,1.464 3.384,2.196 5.303,2.196s3.839-0.732 5.303-2.196c2.929-2.93 2.929-7.678 0-10.607l-17.196-17.196h31.893c15.164,0 27.5-12.337 27.5-27.5v-9.999c-5.68434e-14-0.063-0.001-0.127-0.003-0.189zm-280.767-317.271h217.57l4.911,194.514h-227.388l4.907-194.514zm217.192-15h-216.813l1.388-55.041h214.035l1.39,55.041zm-255.906-42.358c0.174-6.875 6.132-12.683 13.009-12.683h12.468l-6.859,271.865c-0.051,2.021 0.716,3.978 2.128,5.426 1.412,1.447 3.348,2.264 5.37,2.264h242.772c2.022,0 3.958-0.816 5.37-2.264 1.412-1.448 2.179-3.404 2.128-5.426l-6.865-271.865h12.463c6.877,0 12.835,5.808 13.009,12.683l9.299,367.318h-84.807v-42.437c0-4.143-3.358-7.5-7.5-7.5h-128.976c-4.142,0-7.5,3.357-7.5,7.5v42.437h-84.808l9.299-367.318zm162.47,367.318c-0.024,0-0.049,0-0.073,0h-29.8c-0.025,0-0.049,0-0.073,0h-42.014v-34.937h113.975v34.937h-42.015zm-159.461,29.999c-6.893,0-12.5-5.607-12.5-12.5v-2.499h74.393l-14.999,14.999h-46.894zm288.975,0h-46.893l-14.999-14.999h74.392v2.499c0,6.893-5.608,12.5-12.5,12.5z"/>
    <path d="m325.632,249.555h-30c-4.142,0-7.5,3.357-7.5,7.5s3.358,7.5 7.5,7.5h30c4.142,0 7.5-3.357 7.5-7.5s-3.358-7.5-7.5-7.5z"/>
    <path d="m265.632,249.555h-61.253c-4.142,0-7.5,3.357-7.5,7.5s3.358,7.5 7.5,7.5h61.253c4.142,0 7.5-3.357 7.5-7.5s-3.358-7.5-7.5-7.5z"/>
    <path d="m174.379,249.555h-30c-4.142,0-7.5,3.357-7.5,7.5s3.358,7.5 7.5,7.5h30c4.142,0 7.5-3.357 7.5-7.5s-3.358-7.5-7.5-7.5z"/>
  </g>
</svg>