<?xml version='1.0' encoding='iso-8859-1'?>
<!-- Uploaded to: SVG Repo, www.svgrepo.com, Generator: SVG Repo Mixer Tools -->
<svg fill="#000000" height="800px" width="800px" version="1.1" xmlns="http://www.w3.org/2000/svg" viewBox="0 0 472.355 472.355" xmlns:xlink="http://www.w3.org/1999/xlink" enable-background="new 0 0 472.355 472.355">
  <g>
    <path d="m405.969,459.552l-30-29.999c-0.001-0.001-23.69-23.69-23.69-23.69 21.389-8.459 37.244-28.988 38.422-52.923l11.887-235.2c1.61-31.295-9.176-60.82-30.372-83.135-21.196-22.315-50.128-34.605-81.465-34.605h-108.975c-31.334,0-60.283,12.289-81.513,34.602-21.23,22.314-32.064,51.838-30.506,83.142l11.932,235.214c1.243,23.884 17.09,44.374 38.433,52.859l-23.735,23.734c-0.001,0.001-30.001,30.001-30.001,30.001-2.145,2.145-2.786,5.371-1.625,8.173 1.16,2.803 3.896,4.63 6.929,4.63h328.975c3.033,0 5.769-1.827 6.929-4.63 1.161-2.802 0.519-6.028-1.625-8.173zm-309.299-107.364l-11.931-235.197c-1.353-27.153 8.021-52.741 26.392-72.049 18.37-19.309 43.459-29.942 70.645-29.942h108.975c27.184,0 52.253,10.631 70.589,29.935s27.665,44.886 26.268,72.041l-11.888,235.217c-1.162,23.604-21.335,42.808-44.969,42.808h-4.632l2.568-50.807c0.911-17.707-5.198-34.418-17.203-47.057s-28.38-19.598-46.11-19.598h-58.299c-17.729,0-34.112,6.959-46.135,19.596-12.022,12.636-18.158,29.346-17.275,47.059l2.577,50.808h-4.465c-23.644-0.001-43.88-19.211-45.107-42.814zm64.59,42.813l-2.615-51.561c-0.675-13.563 3.999-26.335 13.162-35.966s21.688-14.935 35.268-14.935h58.299c13.577,0 26.09,5.302 35.234,14.929s13.797,22.396 13.099,35.962l-2.606,51.571h-149.841zm-19.484,15h188.975c1.447,0 2.881-0.072 4.306-0.178 0.1,0.113 0.196,0.228 0.304,0.336l17.197,17.196h-232.761l17.197-17.196c0.112-0.112 0.212-0.231 0.315-0.349 1.479,0.115 2.966,0.191 4.467,0.191zm-51.979,47.354l15-15h262.761l15,15h-292.761z"/>
    <path d="m353.59,153.684c3.995,0 7.289-3.131 7.49-7.121l1.562-30.878c0.379-7.359-0.302-14.643-2.022-21.649-0.823-3.354-3.83-5.711-7.283-5.711l-234.279,.005c-3.446,0-6.449,2.349-7.279,5.693-1.742,7.019-2.439,14.316-2.071,21.694l1.564,30.847c0.202,3.989 3.496,7.12 7.49,7.12h234.828zm-228.367-50.354l221.932-.006c0.538,3.799 0.708,7.68 0.507,11.596l-1.202,23.764h-220.569l-1.203-23.72c-0.196-3.927-0.016-7.82 0.535-11.634z"/>
    <path d="m354.566,214.713c3.461-2.277 4.42-6.927 2.144-10.388-2.277-3.461-6.93-4.42-10.388-2.144-32.725,21.53-70.812,32.91-110.145,32.91-39.33,0-77.415-11.378-110.138-32.905-3.461-2.278-8.112-1.317-10.388,2.144-2.276,3.46-1.316,8.111 2.144,10.388 35.178,23.142 76.114,35.374 118.382,35.374 42.272,2.84217e-14 83.211-12.234 118.389-35.379z"/>
    <path d="m173.678,191.184c0,12.407 10.094,22.5 22.5,22.5s22.5-10.093 22.5-22.5-10.094-22.5-22.5-22.5-22.5,10.093-22.5,22.5zm30,0c0,4.136-3.364,7.5-7.5,7.5s-7.5-3.364-7.5-7.5 3.364-7.5 7.5-7.5 7.5,3.364 7.5,7.5z"/>
    <path d="m253.678,191.184c0,12.407 10.094,22.5 22.5,22.5s22.5-10.093 22.5-22.5-10.094-22.5-22.5-22.5-22.5,10.093-22.5,22.5zm30,0c0,4.136-3.364,7.5-7.5,7.5s-7.5-3.364-7.5-7.5 3.364-7.5 7.5-7.5 7.5,3.364 7.5,7.5z"/>
    <path d="m291.196,336.313h-110.042c-4.143,0-7.5,3.358-7.5,7.5s3.357,7.5 7.5,7.5h110.042c4.143,0 7.5-3.358 7.5-7.5s-3.357-7.5-7.5-7.5z"/>
  </g>
</svg>