<?xml version='1.0' encoding='iso-8859-1'?>
<!-- Uploaded to: SVG Repo, www.svgrepo.com, Generator: SVG Repo Mixer Tools -->
<svg fill="#000000" height="800px" width="800px" version="1.1" xmlns="http://www.w3.org/2000/svg" viewBox="0 0 470 470" xmlns:xlink="http://www.w3.org/1999/xlink" enable-background="new 0 0 470 470">
  <g>
    <path d="m404.791,457.196l-29.997-29.997c-0.005-0.005-28.072-28.072-28.072-28.072l36.805-5.254c4.018-0.573 6.851-4.239 6.392-8.272l-10.526-92.555c-0.431-3.79-3.638-6.652-7.452-6.652h-13.553v-24.788c13.911-3.38 24.273-15.934 24.273-30.87s-10.362-27.49-24.273-30.87v-55.694c0-4.143-3.358-7.5-7.5-7.5h-22.143c-2.519-31.78-20.901-59.163-47.208-74.211v-54.961c0-4.143-3.358-7.5-7.5-7.5h-78.115c-4.142,0-7.5,3.357-7.5,7.5v54.96c-26.307,15.048-44.689,42.431-47.208,74.211h-22.1c-4.142,0-7.5,3.357-7.5,7.5v55.694c-13.911,3.38-24.273,15.934-24.273,30.87s10.362,27.49 24.273,30.87v24.788h-13.554c-3.814,0-7.021,2.862-7.452,6.652l-10.526,92.555c-0.458,4.033 2.374,7.699 6.392,8.272l36.805,5.254-28.069,28.07c-0.001,0.001-30,30-30,30-2.145,2.146-2.787,5.371-1.626,8.174 1.161,2.803 3.896,4.63 6.929,4.63h328.975c3.034,0 5.768-1.827 6.929-4.63 1.16-2.803 0.519-6.028-1.626-8.174zm-37.131-226.461c0,9.248-7.524,16.772-16.773,16.772s-16.772-7.524-16.772-16.772 7.524-16.772 16.772-16.772 16.773,7.524 16.773,16.772zm-24.273-30.87c-13.911,3.38-24.272,15.934-24.272,30.87s10.362,27.49 24.272,30.87v24.788h-58.803v-62.337c24.67-15.375 41.739-41.849 44.16-72.386h14.643v48.195zm-143.013,86.529v-54.754c10.716,4.255 22.392,6.596 34.605,6.596 12.213,0 23.889-2.341 34.605-6.596v54.754h-69.21zm3.047-271.394h63.115v40.558c-9.869-3.525-20.492-5.452-31.558-5.452s-21.688,1.927-31.558,5.452v-40.558zm31.559,50.106c43.596,0 79.064,35.468 79.064,79.064s-35.468,79.064-79.064,79.064-79.064-35.468-79.064-79.064 35.467-79.064 79.064-79.064zm-132.639,165.629c0-9.248 7.524-16.772 16.773-16.772s16.772,7.524 16.772,16.772-7.524,16.772-16.772,16.772-16.773-7.524-16.773-16.772zm24.273,30.871c13.911-3.38 24.272-15.934 24.272-30.87s-10.362-27.49-24.272-30.87v-48.194h14.6c2.421,30.537 19.49,57.011 44.16,72.386v62.337h-58.761v-24.789zm-21.857,39.788h53.701l-3.913,64.934c-0.249,4.135 2.9,7.688 7.035,7.938 0.154,0.01 0.306,0.014 0.458,0.014 3.936,0 7.24-3.068 7.479-7.049l3.967-65.836h53.997l.01,75.804c0,4.143 3.359,7.5 7.501,7.499s7.5-3.358 7.499-7.501l-.01-75.802h53.946l3.513,65.862c0.213,4.001 3.523,7.101 7.483,7.101 0.134,0 0.27-0.003 0.406-0.011 4.136-0.221 7.311-3.753 7.09-7.889l-3.471-65.063h53.798l8.946,78.66-139.19,19.87-139.191-19.871 8.946-78.66zm129.185,113.532c0.352,0.05 0.706,0.075 1.06,0.075s0.708-0.025 1.06-0.075l92.097-13.148 23.223,23.222h-232.76l23.223-23.222 92.097,13.148zm-145.32,40.074l15-15h262.76l15,15h-292.76z"/>
    <path d="m234.979,185.604c22.846,0 41.433-18.587 41.433-41.433s-18.586-41.433-41.433-41.433-41.433,18.587-41.433,41.433 18.586,41.433 41.433,41.433zm0-67.866c14.575,0 26.433,11.857 26.433,26.433s-11.857,26.433-26.433,26.433-26.433-11.857-26.433-26.433 11.857-26.433 26.433-26.433z"/>
  </g>
</svg>