<svg width="128" height="22" viewBox="0 0 128 22" fill="none" xmlns="http://www.w3.org/2000/svg">
<path fill-rule="evenodd" clip-rule="evenodd" d="M14.8182 2.33288C17.4704 -0.312662 21.7857 -0.312662 24.4377 2.33288C27.0898 4.97851 27.0898 9.2833 24.4377 11.9289L15.1389 21.2051C14.0763 22.2651 12.3536 22.265 11.2911 21.2051L22.5138 10.0097C23.2846 9.24079 23.7092 8.21841 23.7092 7.13091C23.7092 6.0434 23.2846 5.02102 22.5138 4.25207C20.9226 2.66473 18.3334 2.66473 16.7422 4.25207L9.36721 11.6091L5.84002 8.09046C5.30879 7.56052 5.30879 6.70129 5.84002 6.17127C6.37134 5.64133 7.23267 5.64133 7.76399 6.17127L9.36721 7.77058L14.8182 2.33288ZM121.39 6.14294C125.468 6.14294 127.922 8.737 127.922 12.9912C127.922 13.5099 127.86 14.0287 127.86 14.091H118.395C118.457 15.8342 119.955 17.1001 121.723 17.1001C123.387 17.1001 124.303 16.27 124.739 15.0871L127.756 15.9794C127.069 18.2622 124.989 20.1714 121.723 20.1714C118.083 20.1714 114.879 17.5566 114.879 13.0949C114.879 8.8822 117.999 6.14294 121.39 6.14294ZM57.8109 6.14296C62.013 6.14296 63.5732 8.50866 63.5732 11.1649V17.6603C63.5732 18.3659 63.6564 19.2997 63.7396 19.7563H60.4528C60.3904 19.4243 60.328 18.6979 60.328 18.1792C59.6415 19.2374 58.3724 20.1506 56.417 20.1506C53.5879 20.1506 51.8612 18.2415 51.8612 16.1662C51.8612 13.8005 53.6086 12.4723 55.8138 12.1403L59.0798 11.663C59.8287 11.5592 60.0783 11.1857 60.0783 10.7292C60.0783 9.79531 59.3502 9.00674 57.8524 9.00674C56.2921 9.00674 55.4186 10.0028 55.3145 11.1649L52.1317 10.5009C52.3397 8.42568 54.2536 6.14296 57.8109 6.14296ZM90.6706 0.311619V15.2947C90.6706 16.436 91.3154 16.7681 92.2099 16.7681C92.3972 16.7681 92.5844 16.7681 92.834 16.7473V19.7978C92.3347 19.9016 91.9187 19.9638 91.3571 19.9638C88.7775 19.9638 87.1548 18.4489 87.1548 15.8964V0.311619H90.6706ZM38.0698 2.59435V6.54696H40.7382V9.71962H38.0698V15.2586C38.0698 16.4147 38.6089 16.7911 39.6331 16.7911C40.0643 16.7911 40.5495 16.7374 40.7382 16.6835V19.6412C40.4147 19.7756 39.7679 19.9638 38.7167 19.9638C36.1292 19.9638 34.5119 18.4313 34.5119 15.877V9.71962H32.1132V6.54696H32.7869C34.1885 6.54696 34.8354 5.63264 34.8354 4.44965V2.59435H38.0698ZM79.8648 6.18447C83.1517 6.18447 84.6494 8.5294 84.6494 11.4347V19.777H81.0714V12.0573C81.0714 10.5839 80.3433 9.42181 78.6167 9.42181C77.0564 9.42181 76.1411 10.6254 76.1411 12.1611V19.7563H72.5631V6.53726H76.0371V8.1767C76.8485 6.80698 78.4295 6.18447 79.8648 6.18447ZM108.353 6.18447C111.64 6.18447 113.138 8.5294 113.138 11.4347V19.777H109.559V12.0573C109.559 10.5839 108.831 9.42181 107.105 9.42181C105.545 9.42181 104.629 10.6254 104.629 12.1611V19.7563H101.051V6.53726H104.525V8.1767C105.337 6.80698 106.917 6.18447 108.353 6.18447ZM50.135 6.43348C50.4263 6.43348 50.6967 6.47502 50.9671 6.4957V10.0858C50.551 10.0028 50.2182 9.98208 49.8854 9.98208C48.0547 9.98208 46.4737 10.8744 46.4737 13.7174V19.7562H42.8956V6.53723H46.3697V8.5087C47.181 6.7655 49.0117 6.43348 50.135 6.43348ZM69.8349 6.53728V19.7563H66.2568V6.53728H69.8349ZM98.323 6.53728V19.7563H94.7449V6.53728H98.323ZM1.99225 2.33289C4.53663 -0.205205 8.61137 -0.307901 11.2801 2.02392L9.34929 3.95007C7.74837 2.67239 5.39902 2.7728 3.91613 4.25208C2.32491 5.83943 2.32491 8.42232 3.91613 10.0097L9.3672 15.4474L18.666 6.17127C19.1973 5.64134 20.0587 5.64134 20.5899 6.17127C21.1211 6.70121 21.1211 7.56053 20.5899 8.09047L9.3672 19.2858L1.99225 11.9289C0.707573 10.6473 0 8.94336 0 7.13091C0 5.31847 0.707573 3.61443 1.99225 2.33289ZM60.0575 13.8212L57.0619 14.2778C56.1466 14.4023 55.4186 14.9211 55.4186 15.9379C55.4186 16.7265 55.9802 17.4736 57.1451 17.4736C58.6637 17.4736 60.0575 16.7472 60.0575 14.4023V13.8212ZM121.411 9.02749C119.56 9.02749 118.54 10.4387 118.457 11.6422H124.365C124.323 10.3141 123.45 9.02749 121.411 9.02749ZM68.025 0.00031892C69.2523 0.00031892 70.2301 0.975711 70.2301 2.22082C70.2301 3.40363 69.2731 4.39979 68.025 4.39979C66.8184 4.39979 65.8199 3.40363 65.8199 2.22082C65.8199 0.975711 66.8184 -0.0204491 68.025 0.00031892ZM96.5339 0.00031892C97.7613 0.00031892 98.7389 0.975711 98.7389 2.22082C98.7389 3.40363 97.7821 4.39979 96.5339 4.39979C95.3273 4.39979 94.3288 3.40363 94.3288 2.22082C94.3288 0.975711 95.3066 -0.0204491 96.5339 0.00031892Z" fill="#00A88F"/>
</svg>
